<svg width="12" height="7" viewBox="0 0 12 7" fill="none" xmlns="http://www.w3.org/2000/svg">
<path d="M1.01176 0.188114C0.954506 0.128024 0.887162 0.081048 0.813568 0.0498666C0.739974 0.0186853 0.661571 0.00390956 0.582837 0.00638339C0.504101 0.00885723 0.426576 0.0285325 0.354687 0.0642848C0.282797 0.100038 0.217952 0.151167 0.163853 0.214756C0.109754 0.278344 0.0674605 0.353145 0.0393877 0.434888C0.0113149 0.516631 -0.00198772 0.603715 0.000239585 0.691168C0.00246689 0.778621 0.0201804 0.864731 0.0523687 0.944581C0.0845571 1.02443 0.13059 1.09646 0.187839 1.15655L5.58467 6.81794C5.69601 6.93486 5.84341 7 5.99663 7C6.14985 7 6.29725 6.93486 6.40859 6.81794L11.806 1.15655C11.8645 1.09685 11.9118 1.02484 11.945 0.944699C11.9782 0.864556 11.9968 0.777877 11.9996 0.689696C12.0024 0.601515 11.9895 0.51359 11.9614 0.431029C11.9334 0.348468 11.8909 0.272917 11.8363 0.208763C11.7818 0.144608 11.7163 0.093131 11.6437 0.0573201C11.5711 0.0215096 11.4928 0.00207946 11.4134 0.000158288C11.334 -0.00176289 11.255 0.0138626 11.1811 0.0461287C11.1071 0.0783949 11.0397 0.126657 10.9827 0.188113L5.99663 5.41791L1.01176 0.188114Z" fill="#00182A"/>
</svg>
